<svg xmlns="http://www.w3.org/2000/svg" viewBox="0 0 64 64">
  <defs>
    <linearGradient id="g" x1="10" y1="8" x2="54" y2="58" gradientUnits="userSpaceOnUse">
      <stop stop-color="#42d392"/>
      <stop offset="1" stop-color="#118a62"/>
    </linearGradient>
  </defs>
  <rect width="64" height="64" rx="20" fill="#08130e"/>
  <path d="M32 10c-11 0-19.5 8.8-19.5 20 0 13.2 10.7 24 19.5 28 8.8-4 19.5-14.8 19.5-28C51.5 18.8 43 10 32 10Z" fill="url(#g)" opacity=".22"/>
  <path d="M32 15.5c-7.8 0-13.5 6.2-13.5 14.2 0 9.2 7.1 16.6 13.5 20 6.3-3.4 13.4-10.8 13.4-20 0-8-5.6-14.2-13.4-14.2Z" fill="none" stroke="#68e5aa" stroke-width="3.4"/>
  <path d="M25.4 38.8c6.3-1.3 11.2-5.1 14.3-11.2.2 7.2-2.8 12.6-9 16" fill="none" stroke="#f5c85c" stroke-linecap="round" stroke-width="3.4"/>
  <circle cx="41.5" cy="22" r="2" fill="#f5c85c"/>
</svg>
